<svg id="Logos" xmlns="http://www.w3.org/2000/svg" viewBox="0 0 550 200"><defs><style>.cls-1,.cls-2,.cls-3,.cls-4{fill:#fff;}.cls-2{opacity:0.7;}.cls-3,.cls-4{stroke:#41b6e9;stroke-linecap:round;stroke-miterlimit:10;}.cls-3{stroke-width:10.09px;}.cls-4{stroke-width:6.73px;}</style></defs><g id="KGE_white"><path class="cls-1" d="M229.19,20.83V35.88l14.18-15h10L239.15,35.17l15.55,22h-10L233.76,40.81l-4.58,4.63V57.13h-8V20.83Z"/><path class="cls-1" d="M265.84,20.85,281,45.2h.11V20.85h7.48l0,36.29h-8l-15.08-24.3h-.11V57.14H257.9V20.84Z"/><path class="cls-1" d="M295.22,31.61a18.25,18.25,0,0,1,3.51-6.07,16,16,0,0,1,5.62-4.07,18.38,18.38,0,0,1,7.5-1.47,18.15,18.15,0,0,1,7.52,1.48A16,16,0,0,1,325,25.55a17.91,17.91,0,0,1,3.51,6.07,22.77,22.77,0,0,1,1.21,7.55,21.8,21.8,0,0,1-1.22,7.4,17.46,17.46,0,0,1-3.51,6,16.21,16.21,0,0,1-5.59,4,20.24,20.24,0,0,1-15,0,16,16,0,0,1-5.62-4,17.69,17.69,0,0,1-3.5-6,21.8,21.8,0,0,1-1.22-7.4A22.77,22.77,0,0,1,295.22,31.61Zm7.29,12a12.08,12.08,0,0,0,1.7,3.89,8.74,8.74,0,0,0,3.05,2.77,9.28,9.28,0,0,0,4.58,1,9.14,9.14,0,0,0,4.57-1,8.63,8.63,0,0,0,3-2.76,12.2,12.2,0,0,0,1.71-3.89,18.82,18.82,0,0,0,.53-4.45,19.68,19.68,0,0,0-.53-4.63,12.13,12.13,0,0,0-1.7-4,8.64,8.64,0,0,0-3.05-2.8,10.58,10.58,0,0,0-9.15,0,8.73,8.73,0,0,0-3,2.8,12.13,12.13,0,0,0-1.7,4,19.6,19.6,0,0,0-.54,4.62A18.82,18.82,0,0,0,302.51,43.61Z"/><path class="cls-1" d="M361.75,57.18l-6.14-24.71h-.1l-6.06,24.7h-8.08l-9.59-36.3h8l5.73,24.71h.1l6.32-24.7h7.47l6.19,25h.1l6-25h7.83l-9.78,36.29Z"/><path class="cls-1" d="M391.1,20.9V50.48h17.69V57.2H383.11V20.89Z"/><path class="cls-1" d="M440.41,20.91v6.71H421.24v7.77h17.59v6.2H421.24v8.89h19.58v6.71H413.25V20.9Z"/><path class="cls-1" d="M461.86,20.92A18.77,18.77,0,0,1,468.39,22a14.21,14.21,0,0,1,5.24,3.36A15.48,15.48,0,0,1,477.08,31a22.66,22.66,0,0,1,1.25,7.88,25,25,0,0,1-1,7.32,16,16,0,0,1-3.07,5.8,14.45,14.45,0,0,1-5.14,3.83,17.22,17.22,0,0,1-7.24,1.4H446.19l0-36.29Zm-.57,29.59a10.39,10.39,0,0,0,3.36-.56,7.45,7.45,0,0,0,2.9-1.85,9.54,9.54,0,0,0,2-3.39,14.78,14.78,0,0,0,.76-5.08,20.87,20.87,0,0,0-.53-5,9.82,9.82,0,0,0-1.75-3.79,7.78,7.78,0,0,0-3.23-2.42,12.86,12.86,0,0,0-4.95-.84h-5.7V50.5Z"/><path class="cls-1" d="M505.36,57a13.51,13.51,0,0,1-5.23,1.09,18.72,18.72,0,0,1-7.5-1.46,16,16,0,0,1-5.62-4,17.6,17.6,0,0,1-3.5-6,22.05,22.05,0,0,1-1.22-7.4,22.77,22.77,0,0,1,1.22-7.55A18.25,18.25,0,0,1,487,25.61a16.17,16.17,0,0,1,5.62-4.07,18.38,18.38,0,0,1,7.5-1.47,17.58,17.58,0,0,1,5.41.84,15.14,15.14,0,0,1,4.73,2.47,13.37,13.37,0,0,1,3.48,4,13.55,13.55,0,0,1,1.68,5.49h-7.63a7.6,7.6,0,0,0-2.74-4.57,8,8,0,0,0-4.93-1.53,9.4,9.4,0,0,0-4.58,1,8.73,8.73,0,0,0-3.05,2.8,12.13,12.13,0,0,0-1.7,4,19.6,19.6,0,0,0-.54,4.62,18.76,18.76,0,0,0,.53,4.45,12.1,12.1,0,0,0,1.71,3.89,8.48,8.48,0,0,0,3.05,2.77,9.22,9.22,0,0,0,4.57,1,8.68,8.68,0,0,0,6.13-2,8.74,8.74,0,0,0,2.51-5.82h-8v-6H516V57.24H510.9l-.81-4.12A12,12,0,0,1,505.36,57Z"/><path class="cls-1" d="M549.6,21v6.71H530.44v7.78H548v6.2H530.43v8.89H550v6.71H522.44l0-36.29Z"/><path class="cls-1" d="M242.68,117.86a13.56,13.56,0,0,1-5.24,1.09,18.72,18.72,0,0,1-7.5-1.45,16,16,0,0,1-5.61-4,17.62,17.62,0,0,1-3.51-6,21.8,21.8,0,0,1-1.21-7.4,22.42,22.42,0,0,1,1.22-7.54,18,18,0,0,1,3.51-6.08A15.93,15.93,0,0,1,230,82.45,18.17,18.17,0,0,1,237.45,81a17.64,17.64,0,0,1,5.42.83,15.63,15.63,0,0,1,4.72,2.47,13.28,13.28,0,0,1,5.16,9.51h-7.62a7.65,7.65,0,0,0-2.75-4.58,8,8,0,0,0-4.93-1.52,9.14,9.14,0,0,0-4.57,1,8.44,8.44,0,0,0-3,2.79,12.36,12.36,0,0,0-1.71,4,19.62,19.62,0,0,0-.53,4.63,17.75,17.75,0,0,0,.53,4.44,11.87,11.87,0,0,0,1.7,3.89,8.77,8.77,0,0,0,3.05,2.78,9.33,9.33,0,0,0,4.57,1,7.8,7.8,0,0,0,8.65-7.83h-8V98.51h15.25v19.62h-5.08l-.81-4.12A12.09,12.09,0,0,1,242.68,117.86Z"/><path class="cls-1" d="M279.34,81.85a12,12,0,0,1,4.4.79,10.14,10.14,0,0,1,3.35,2.17A9.21,9.21,0,0,1,289.23,88a10.24,10.24,0,0,1,.73,3.89,10.85,10.85,0,0,1-1.35,5.54,8.41,8.41,0,0,1-4.39,3.56v.1a6.09,6.09,0,0,1,2.43,1.25,6.91,6.91,0,0,1,1.58,2,9.18,9.18,0,0,1,.89,2.52,23.43,23.43,0,0,1,.38,2.74c0,.58.07,1.26.1,2s.09,1.57.18,2.39a16.35,16.35,0,0,0,.4,2.31,5.35,5.35,0,0,0,.84,1.85h-8a14,14,0,0,1-.81-4.12c-.1-1.59-.25-3.11-.46-4.57a7.27,7.27,0,0,0-1.72-4.17,6,6,0,0,0-4.32-1.32h-8v14.19h-8V81.85Zm-2.85,16.42a6,6,0,0,0,4.12-1.22,5.06,5.06,0,0,0,1.37-4,4.87,4.87,0,0,0-1.37-3.84,6.1,6.1,0,0,0-4.12-1.19h-8.74V98.27Z"/><path class="cls-1" d="M314.57,81.87l13.56,36.3h-8.29l-2.74-8.09H303.53l-2.85,8.08h-8l13.74-36.3Zm.45,22.26-4.57-13.32h-.1l-4.74,13.32Z"/><path class="cls-1" d="M347.66,81.88a15.12,15.12,0,0,1,5.8,1,10.92,10.92,0,0,1,3.89,2.62,10,10,0,0,1,2.18,3.72,13.66,13.66,0,0,1,.69,4.32,14,14,0,0,1-.69,4.29,10.09,10.09,0,0,1-2.19,3.74,10.91,10.91,0,0,1-3.89,2.61,14.91,14.91,0,0,1-5.79,1h-8.39v13h-8l0-36.3ZM345.47,99a17.47,17.47,0,0,0,2.65-.2,6.22,6.22,0,0,0,2.23-.79,4.26,4.26,0,0,0,1.55-1.65,6.92,6.92,0,0,0,0-5.59,4.26,4.26,0,0,0-1.54-1.66,6.08,6.08,0,0,0-2.24-.78,16.22,16.22,0,0,0-2.64-.21h-6.21V99Z"/><path class="cls-1" d="M373.18,81.89V95.82h14.69V81.9h8l0,36.3h-8V102.53h-14.7v15.66h-8V81.89Z"/><path class="cls-1" d="M248.31,142.85v6.71H229.14v7.78h17.59v6.2H229.14v8.89h19.58v6.71H221.15l0-36.29Z"/><path class="cls-1" d="M251.31,142.85h9.25l7.12,11.59,7.37-11.59h8.74l-11.64,17.33,12.65,19h-9.51l-7.93-12.56-8.08,12.56h-8.95l12.67-19Z"/><path class="cls-1" d="M304.38,142.87a15.19,15.19,0,0,1,5.8,1,10.75,10.75,0,0,1,3.88,2.62,10.05,10.05,0,0,1,2.19,3.71,13.65,13.65,0,0,1,.68,4.32,14.05,14.05,0,0,1-.68,4.3,10.05,10.05,0,0,1-2.19,3.73,10.8,10.8,0,0,1-3.89,2.62,15.19,15.19,0,0,1-5.8,1H296v13h-8v-36.3Zm-2.19,17.07a15.11,15.11,0,0,0,2.64-.2,6.08,6.08,0,0,0,2.24-.78,4.29,4.29,0,0,0,1.55-1.66,5.9,5.9,0,0,0,.59-2.79,5.82,5.82,0,0,0-.59-2.8,4.26,4.26,0,0,0-1.55-1.65,6.22,6.22,0,0,0-2.23-.79,17.47,17.47,0,0,0-2.65-.2H296v10.88Z"/><path class="cls-1" d="M329.9,142.88v29.58h17.69v6.71H321.91v-36.3Z"/><path class="cls-1" d="M351.7,153.64a18.39,18.39,0,0,1,3.51-6.08,16,16,0,0,1,5.62-4.06,19.92,19.92,0,0,1,15,0,16.15,16.15,0,0,1,5.59,4.07,18.05,18.05,0,0,1,3.51,6.08,22.77,22.77,0,0,1,1.22,7.55,21.71,21.71,0,0,1-1.23,7.39,17.6,17.6,0,0,1-3.51,6,16.05,16.05,0,0,1-5.59,4,20.17,20.17,0,0,1-15,0,16.23,16.23,0,0,1-5.62-4,17.74,17.74,0,0,1-3.5-6,21.76,21.76,0,0,1-1.22-7.4A22.71,22.71,0,0,1,351.7,153.64Zm7.29,12a12.15,12.15,0,0,0,1.71,3.9,8.72,8.72,0,0,0,3,2.77,10.58,10.58,0,0,0,9.15,0,8.66,8.66,0,0,0,3.05-2.77,12.1,12.1,0,0,0,1.71-3.89,18.25,18.25,0,0,0,.53-4.45,19.09,19.09,0,0,0-.53-4.62,12.13,12.13,0,0,0-1.7-4,8.64,8.64,0,0,0-3.05-2.8,10.58,10.58,0,0,0-9.15,0,8.61,8.61,0,0,0-3.05,2.79,12.13,12.13,0,0,0-1.7,4,19.63,19.63,0,0,0-.54,4.63A18.73,18.73,0,0,0,359,165.63Z"/><path class="cls-1" d="M411.19,142.91a11.56,11.56,0,0,1,4.39.79,10,10,0,0,1,3.35,2.16,9.21,9.21,0,0,1,2.14,3.17,10.28,10.28,0,0,1,.74,3.89,11.06,11.06,0,0,1-1.35,5.54,8.47,8.47,0,0,1-4.4,3.56v.1a6.33,6.33,0,0,1,2.44,1.25,6.87,6.87,0,0,1,1.57,2,9.29,9.29,0,0,1,.89,2.52,21.39,21.39,0,0,1,.38,2.75c0,.57.07,1.25.1,2s.09,1.57.18,2.39a16.35,16.35,0,0,0,.4,2.31,5.49,5.49,0,0,0,.84,1.86h-8a14,14,0,0,1-.81-4.11c-.1-1.6-.26-3.12-.46-4.58a7.2,7.2,0,0,0-1.72-4.17q-1.32-1.32-4.32-1.32h-8V179.2h-8V142.9Zm-2.86,16.42a6.05,6.05,0,0,0,4.12-1.22,5.1,5.1,0,0,0,1.37-4,4.83,4.83,0,0,0-1.37-3.84,6.13,6.13,0,0,0-4.11-1.19h-8.75v10.22Z"/><path class="cls-1" d="M455.46,142.92v6.71H436.29v7.77h17.59v6.2H436.29v8.89h19.58v6.71H428.3l0-36.3Z"/><path class="cls-1" d="M480.83,142.93a11.81,11.81,0,0,1,4.4.79,10.28,10.28,0,0,1,3.35,2.16,9.46,9.46,0,0,1,2.13,3.18,10.24,10.24,0,0,1,.74,3.89,10.88,10.88,0,0,1-1.35,5.54,8.47,8.47,0,0,1-4.4,3.56v.1a6.13,6.13,0,0,1,2.44,1.25,7.08,7.08,0,0,1,1.58,2,9.16,9.16,0,0,1,.88,2.52,21.51,21.51,0,0,1,.39,2.74c0,.58.06,1.26.1,2s.09,1.57.17,2.38a16.22,16.22,0,0,0,.41,2.32,5.08,5.08,0,0,0,.84,1.85h-8a13.67,13.67,0,0,1-.82-4.12c-.1-1.59-.25-3.12-.45-4.57a7.2,7.2,0,0,0-1.73-4.17,5.94,5.94,0,0,0-4.32-1.33h-8v14.18h-8l0-36.29ZM478,159.35a6,6,0,0,0,4.11-1.22,5.07,5.07,0,0,0,1.38-4,4.87,4.87,0,0,0-1.37-3.84,6.12,6.12,0,0,0-4.12-1.2h-8.74v10.22Z"/><path class="cls-2" d="M96.07,16.29,45.73,30.88a16.81,16.81,0,0,1,2.73,9.57L98.81,26A16.75,16.75,0,0,1,96.07,16.29Z"/><path class="cls-2" d="M172.32,86.9,126.56,26.55a16.76,16.76,0,0,1-7.46,5.86L167,91.06a3.38,3.38,0,0,0,2.65,1.28,3.36,3.36,0,0,0,2.64-5.44Z"/><path class="cls-2" d="M23.31,54.65,10.66,110.34a3.37,3.37,0,0,0,2.45,4.08,3.91,3.91,0,0,0,.82.1A3.36,3.36,0,0,0,17.19,112l15.1-55.11A16.74,16.74,0,0,1,23.31,54.65Z"/><path class="cls-2" d="M106.67,41.65a22.18,22.18,0,0,1,5.2,2l1.82-9.31a5,5,0,0,0-9.79-2.44L101.11,41A22.19,22.19,0,0,1,106.67,41.65Z"/><path class="cls-1" d="M116.94.5a16.82,16.82,0,0,0-12.79,30.7,5,5,0,0,1,9.65,2.41A16.82,16.82,0,0,0,116.94.5Z"/><path class="cls-2" d="M79.49,58a22.53,22.53,0,0,1,3.21-7.19L49.21,40.64A5,5,0,1,0,46,50.2L78.85,62.31A22.53,22.53,0,0,1,79.49,58Z"/><path class="cls-1" d="M42.83,43.82a5,5,0,0,1,5.63-3.35,16.79,16.79,0,1,0-4.7,11.29,17.08,17.08,0,0,0,1.54-1.88A5,5,0,0,1,42.83,43.82Z"/><path class="cls-2" d="M90.56,170.21,22.37,125.54a3.37,3.37,0,0,0-3.78,5.57l66.64,47A16.87,16.87,0,0,1,90.56,170.21Z"/><path class="cls-2" d="M41.2,113.44a16.88,16.88,0,0,1-.63-4.3l-19.51,6.57A3.36,3.36,0,0,0,22,122.3a3.31,3.31,0,0,0,.93-.13l20-4.75A17.17,17.17,0,0,1,41.2,113.44Z"/><path class="cls-2" d="M171.47,103.73a3.37,3.37,0,0,0-4.75.29L108.32,168a16.83,16.83,0,0,1,7.15,6.29l56.29-65.77A3.37,3.37,0,0,0,171.47,103.73Z"/><path class="cls-2" d="M165.19,95.53l-92.22,7c.21.53.4,1.06.56,1.62a16.61,16.61,0,0,1,.3,8l92-9.93a3.36,3.36,0,1,0-.62-6.69Z"/><path class="cls-3" d="M112.87,16.82"/><path class="cls-4" d="M112.87,16.82"/><path class="cls-2" d="M82,75,65.42,93.21a5,5,0,1,0,7.25,7L90.49,83.07A22.38,22.38,0,0,1,82,75Z"/><path class="cls-1" d="M72.09,100.71a5,5,0,0,1-7.15-6.89,16.79,16.79,0,1,0,8.59,10.36A17.23,17.23,0,0,0,72.09,100.71Z"/><circle class="cls-1" cx="101.24" cy="183.19" r="16.81"/><circle class="cls-1" cx="101.24" cy="63.4" r="22.42"/><path class="cls-1" d="M17.7,126.44a3.35,3.35,0,0,1,4.22-1.14,11,11,0,0,0,.5-3,3.25,3.25,0,0,1-.44,0,3.35,3.35,0,0,1-1.39-6.41A11,11,0,0,0,17,112.46a3.35,3.35,0,0,1-6.43-1.62,11.91,11.91,0,0,0-2.47.41,11.21,11.21,0,1,0,10.09,19.53A3.33,3.33,0,0,1,17.7,126.44Z"/><path class="cls-1" d="M179.38,87a11.17,11.17,0,0,0-6.74.42,3.35,3.35,0,0,1-5.19,4.08,11.4,11.4,0,0,0-1.66,3.66c0,.13,0,.26-.08.39a3.35,3.35,0,0,1,.6,6.6,13.22,13.22,0,0,0,.78,1.55,3.35,3.35,0,0,1,5,4.38,11.75,11.75,0,0,0,1.89.67A11.21,11.21,0,1,0,179.38,87Z"/></g></svg>