<?xml version="1.0" encoding="iso-8859-1" standalone="no"?>
<!DOCTYPE svg PUBLIC "-//W3C//DTD SVG 20010904//EN"
  "http://www.w3.org/TR/2001/REC-SVG-20010904/DTD/svg10.dtd">
<svg xmlns="http://www.w3.org/2000/svg" xmlns:xlink="http://www.w3.org/1999/xlink"
                  width="37"
                     height="37"
                     id="svg5022"
                     viewBox="0 0 100 100" class="navbar-left" style="margin-right:15px;">
  <defs id="defs5024" />
  <g transform="translate(0,-952.36218)"
     id="layer1">
    <g transform="matrix(1.3317573,0,0,-1.3317573,55.77719,969.01836)"
       id="g3386">
      <path d="m 0,0 c 0.575,-0.561 0.934,-1.343 0.934,-2.212 0,-1.701 -1.382,-3.084 -3.083,-3.086 l -7.082,0 0,10.171 6.964,-0.001 C -0.631,4.869 0.692,3.542 0.692,1.906 0.692,1.182 0.432,0.516 0,0 m -6.812,-3.118 4.361,0 c 0.534,0 0.966,0.433 0.966,0.97 0,0.534 -0.43,0.967 -0.966,0.967 l -4.361,0 0,-1.937 z m 0,4.115 4.237,0 c 0.467,0 0.847,0.38 0.847,0.849 0,0.466 -0.38,0.846 -0.847,0.846 l -4.237,0 0,-1.695 z"
            id="path3388"
            style="fill:#ffffff;fill-opacity:1;fill-rule:nonzero;stroke:none" />
    </g>
    <g transform="matrix(1.3317573,0,0,-1.3317573,49.606104,982.12793)"
       id="g3390">
      <path d="m 0,0 -1.785,-3.694 3.57,0 L 0,0 z m 6.262,-7.566 -2.598,0 -0.818,1.695 -5.691,0 -0.819,-1.695 -2.599,0 5.085,10.168 2.356,0 5.084,-10.168 z"
            id="path3392"
            style="fill:#ffffff;fill-opacity:1;fill-rule:nonzero;stroke:none" />
    </g>
    <g transform="matrix(1.3317573,0,0,-1.3317573,54.2061,995.10737)"
       id="g3394">
      <path d="m 0,0 2.913,0 -5.156,-6.62 0,-3.547 -2.421,0 0,3.547 L -9.82,0 -6.907,0 -3.453,-4.63 0,0 z"
            id="path3396"
            style="fill:#ffffff;fill-opacity:1;fill-rule:nonzero;stroke:none" />
    </g>
    <g transform="matrix(1.3317573,0,0,-1.3317573,72.256494,995.10737)"
       id="g3398">
      <path d="m 0,0 0,-2.18 -6.777,0 0,-1.694 6.536,10e-4 0,-2.179 -6.536,0 0,-1.937 6.777,0 0,-2.178 -9.199,0 L -9.199,0 0,0 z"
            id="path3400"
            style="fill:#ffffff;fill-opacity:1;fill-rule:nonzero;stroke:none" />
    </g>
    <g transform="matrix(1.3317573,0,0,-1.3317573,84.676601,998.01006)"
       id="g3402">
      <path d="m 0,0 -3.516,0 0,-1.937 3.516,0 C 0.533,-1.933 0.963,-1.5 0.963,-0.969 0.963,-0.436 0.533,-0.003 0,0 m -1.699,-4.114 -1.817,0 0,-3.873 -2.42,0 0,10.167 6.184,0 c 1.733,-0.006 3.139,-1.414 3.139,-3.15 0,-1.433 -0.949,-2.641 -2.26,-3.021 l 2.984,-3.996 -2.906,0 -2.904,3.873 z"
            id="path3404"
            style="fill:#ffffff;fill-opacity:1;fill-rule:nonzero;stroke:none" />
    </g>
    <g transform="matrix(1.3317573,0,0,-1.3317573,34.292216,998.57059)"
       id="g3406">
      <path d="m 0,0 -1.787,-3.693 3.571,0 L 0,0 z m 6.262,-7.566 -2.599,0 -0.819,1.695 -5.689,0 -0.819,-1.695 -2.599,0 5.083,10.167 2.358,0 5.084,-10.167 z"
            id="path3408"
            style="fill:#ffffff;fill-opacity:1;fill-rule:nonzero;stroke:none" />
    </g>
    <g transform="matrix(1.3317573,0,0,-1.3317573,22.91382,1001.6036)"
       id="g3410">
      <path d="m 0,0 c 0.575,-0.56 0.934,-1.344 0.934,-2.211 0,-1.701 -1.381,-3.085 -3.084,-3.088 l -7.084,0 0,10.172 6.966,0 C -0.631,4.869 0.692,3.542 0.692,1.906 0.692,1.182 0.432,0.517 0,0 m -6.812,-3.118 4.361,0 c 0.535,0 0.965,0.433 0.965,0.97 0,0.535 -0.43,0.967 -0.965,0.967 l -4.361,0 0,-1.937 z m 0,4.116 4.237,0 c 0.467,0 0.846,0.38 0.846,0.848 0,0.467 -0.379,0.846 -0.846,0.846 l -4.237,0 0,-1.694 z"
            id="path3412"
            style="fill:#ffffff;fill-opacity:1;fill-rule:nonzero;stroke:none" />
    </g>
    <g transform="matrix(1.3317573,0,0,-1.3317573,55.731644,1011.55)"
       id="g3414">
      <path d="m 0,0 0,-2.179 -6.778,0 0,-1.694 6.536,0 0,-2.178 -6.536,0 0,-1.937 6.778,0 0,-2.179 -9.197,0 L -9.197,0 0,0 z"
            id="path3416"
            style="fill:#ffffff;fill-opacity:1;fill-rule:nonzero;stroke:none" />
    </g>
    <g transform="matrix(1.3317573,0,0,-1.3317573,43.480542,1041.8554)"
       id="g3418">
      <path d="m 0,0 0,10.168 6.793,0 C 8.522,10.156 9.921,8.75 9.921,7.016 9.921,5.697 9.111,4.567 7.962,4.096 L 11.017,0 8.109,0 5.205,3.872 2.421,3.872 2.421,0 0,0 z m 7.5,7.019 c 0,0.532 -0.428,0.963 -0.959,0.968 l -4.12,0 0,-1.935 4.12,0 C 7.072,6.057 7.5,6.488 7.5,7.019"
            id="path3420"
            style="fill:#ffffff;fill-opacity:1;fill-rule:nonzero;stroke:none" />
    </g>
    <g transform="matrix(1.3317573,0,0,-1.3317573,98.13468,1001.7388)"
       id="g3422">
      <path d="m 0,0 c 0,-20.115 -16.307,-36.423 -36.422,-36.423 -20.116,0 -36.422,16.308 -36.422,36.423 0,20.114 16.306,36.421 36.422,36.421 C -16.307,36.421 0,20.114 0,0 m -69.469,-0.001 c 0,18.252 14.795,33.047 33.047,33.047 18.252,0 33.047,-14.795 33.047,-33.047 0,-18.252 -14.795,-33.047 -33.047,-33.047 -18.252,0 -33.047,14.795 -33.047,33.047"
            id="path3424"
            style="fill:#ffffff;fill-opacity:1;fill-rule:evenodd;stroke:none" />
    </g>
  </g>
</svg>
